<svg xmlns="http://www.w3.org/2000/svg" viewBox="0 0 1024 1024">
  <!-- Android 13+のテーマアイコン用単色レイヤー。白のみ、透過背景、前景と同じ安全円に収める。 -->
  <g transform="translate(512,512) scale(0.62) translate(-512,-512)" fill="#FFFFFF">
    <rect x="178" y="196" width="80" height="54" rx="14"/>
    <rect x="178" y="340" width="80" height="54" rx="14"/>
    <rect x="178" y="484" width="80" height="54" rx="14"/>
    <rect x="178" y="628" width="80" height="54" rx="14"/>
    <rect x="178" y="772" width="80" height="54" rx="14"/>
    <rect x="766" y="196" width="80" height="54" rx="14"/>
    <rect x="766" y="340" width="80" height="54" rx="14"/>
    <rect x="766" y="484" width="80" height="54" rx="14"/>
    <rect x="766" y="628" width="80" height="54" rx="14"/>
    <rect x="766" y="772" width="80" height="54" rx="14"/>
    <rect x="318" y="178" width="388" height="668" rx="42" fill="none" stroke="#FFFFFF" stroke-width="14"/>
    <g transform="translate(512,512)">
      <circle r="152" fill="none" stroke="#FFFFFF" stroke-width="16"/>
      <path d="M-108,-104 q-48,104 0,208" fill="none" stroke="#FFFFFF" stroke-width="16" stroke-linecap="round"/>
      <path d="M108,-104 q48,104 0,208" fill="none" stroke="#FFFFFF" stroke-width="16" stroke-linecap="round"/>
      <g stroke="#FFFFFF" stroke-width="13" stroke-linecap="round">
        <line x1="-128" y1="-54" x2="-100" y2="-42"/>
        <line x1="-137" y1="0" x2="-107" y2="0"/>
        <line x1="-128" y1="54" x2="-100" y2="42"/>
        <line x1="128" y1="-54" x2="100" y2="-42"/>
        <line x1="137" y1="0" x2="107" y2="0"/>
        <line x1="128" y1="54" x2="100" y2="42"/>
      </g>
    </g>
  </g>
</svg>
