<svg xmlns="http://www.w3.org/2000/svg" viewBox="0 0 1200 320" font-family="'Helvetica Neue',Arial,sans-serif">
  <rect width="1200" height="320" fill="#0B1220"/>

  <!-- マーク: フィルム1コマ + ボール -->
  <g transform="translate(160,160) scale(0.27)">
    <g fill="#223052">
      <rect x="-334" y="-316" width="80" height="54" rx="14"/>
      <rect x="-334" y="-172" width="80" height="54" rx="14"/>
      <rect x="-334" y="-28" width="80" height="54" rx="14"/>
      <rect x="-334" y="116" width="80" height="54" rx="14"/>
      <rect x="-334" y="260" width="80" height="54" rx="14"/>
      <rect x="254" y="-316" width="80" height="54" rx="14"/>
      <rect x="254" y="-172" width="80" height="54" rx="14"/>
      <rect x="254" y="-28" width="80" height="54" rx="14"/>
      <rect x="254" y="116" width="80" height="54" rx="14"/>
      <rect x="254" y="260" width="80" height="54" rx="14"/>
    </g>
    <rect x="-194" y="-334" width="388" height="668" rx="42" fill="#060B16" stroke="#223052" stroke-width="14"/>
    <circle r="152" fill="#F5F1E6"/>
    <path d="M-108,-104 q-48,104 0,208" fill="none" stroke="#E4572E" stroke-width="16" stroke-linecap="round"/>
    <path d="M108,-104 q48,104 0,208" fill="none" stroke="#E4572E" stroke-width="16" stroke-linecap="round"/>
    <g stroke="#E4572E" stroke-width="13" stroke-linecap="round">
      <line x1="-128" y1="-54" x2="-100" y2="-42"/>
      <line x1="-137" y1="0" x2="-107" y2="0"/>
      <line x1="-128" y1="54" x2="-100" y2="42"/>
      <line x1="128" y1="-54" x2="100" y2="-42"/>
      <line x1="137" y1="0" x2="107" y2="0"/>
      <line x1="128" y1="54" x2="100" y2="42"/>
    </g>
  </g>

  <!-- ワードマーク: 英語のみ -->
  <g transform="translate(320,190)">
    <text x="0" y="0" fill="#ECE9E1" font-size="92" font-weight="700" letter-spacing="4">BALL FILMS</text>
  </g>
</svg>
